<svg width="237" height="24" viewBox="0 0 237 24" fill="none" xmlns="http://www.w3.org/2000/svg">
<path d="M10.5112 10.5026C14.0256 6.99164 19.2347 6.48448 22.1235 9.37762C25.0138 12.268 24.51 17.4779 20.9976 20.9909C19.3103 22.6783 17.1845 23.7316 15.0112 23.9567C14.722 23.9852 14.4351 24.0006 14.1548 24.0007C12.286 24.0007 10.6162 23.3447 9.38623 22.1149C7.97032 20.7005 7.31646 18.7023 7.54736 16.4899C7.77089 14.3165 8.82381 12.1901 10.5112 10.5026ZM21.9438 9.55829C20.9825 10.7177 20.2726 12.0409 19.0923 13.0114C17.8354 14.0448 16.452 14.421 14.9312 14.862C11.5939 15.831 9.94401 18.6528 9.56299 21.9362C10.6053 20.6838 11.3702 19.2796 12.687 18.2731C13.8389 17.3942 15.086 17.046 16.4419 16.6755C19.8525 15.7394 21.5463 12.8941 21.9438 9.55829ZM1.87646 1.87762C4.76536 -1.01438 9.97533 -0.508804 13.4897 3.00262C14.4257 3.93864 15.1423 5.01645 15.6538 6.15497C13.974 6.44451 12.3467 7.14642 10.9038 8.20087C10.3549 7.8559 9.75625 7.56052 9.06787 7.36102C7.54841 6.92002 6.16371 6.54448 4.90674 5.50946C3.72782 4.53895 3.01813 3.21432 2.05518 2.05634C2.45117 5.39238 4.14622 8.23848 7.55713 9.1745C8.13312 9.332 8.68563 9.49324 9.22412 9.68524C7.59816 11.3983 6.52632 13.4854 6.15283 15.6559C5.01447 15.1429 3.93639 14.4268 3.00049 13.4909C-0.507856 9.97786 -1.01392 4.76815 1.87646 1.87762Z" fill="#0E8784"/>
<path d="M174.169 8.48016C174.843 8.48019 175.391 8.54625 175.815 8.67841C176.238 8.81062 176.567 8.94268 176.801 9.07489C177.034 9.20695 177.211 9.27296 177.33 9.27313C177.461 9.27313 177.654 9.21036 177.909 9.08368C178.165 8.95696 178.423 8.83282 178.684 8.71161C178.944 8.59051 179.161 8.53004 179.335 8.52997C179.531 8.52997 179.688 8.59599 179.808 8.72821C179.927 8.86044 180.01 9.08639 180.053 9.40594L180.477 12.447C180.553 12.8877 180.563 13.2267 180.509 13.4636C180.455 13.7004 180.313 13.8515 180.085 13.9177C179.9 13.9617 179.705 13.9259 179.498 13.8102C179.292 13.6945 179.085 13.5098 178.879 13.2565C178.086 12.0556 177.361 11.2075 176.703 10.7116C176.046 10.2157 175.348 9.96747 174.609 9.96747C174.076 9.96751 173.674 10.0838 173.403 10.3151C173.131 10.5464 172.995 10.849 172.995 11.2233C172.995 11.4768 173.056 11.7139 173.175 11.9343C173.295 12.1547 173.515 12.3615 173.835 12.5544C174.156 12.7471 174.609 12.9374 175.196 13.1247C176.771 13.6095 177.993 14.1243 178.863 14.6696C179.732 15.2151 180.341 15.8413 180.689 16.5466C181.036 17.2516 181.21 18.0723 181.21 19.0085C181.21 20.5512 180.694 21.7692 179.661 22.6618C178.629 23.5543 177.146 24.0006 175.212 24.0007C174.56 24.0007 174.019 23.9402 173.59 23.819C173.161 23.6978 172.813 23.576 172.547 23.4548C172.281 23.3337 172.066 23.2732 171.904 23.2731C171.741 23.2731 171.526 23.3337 171.26 23.4548L170.461 23.819C170.195 23.9402 169.969 24.0007 169.784 24.0007C169.622 24.0007 169.47 23.9457 169.328 23.8356C169.187 23.7255 169.078 23.5049 169.002 23.1745L168.497 19.8854C168.4 19.4667 168.383 19.1133 168.448 18.8268C168.514 18.5406 168.66 18.3535 168.888 18.2653C169.127 18.1551 169.363 18.1496 169.597 18.2487C169.831 18.3479 170.04 18.5246 170.225 18.778C170.844 19.7364 171.404 20.4908 171.904 21.0417C172.403 21.5927 172.89 21.9818 173.363 22.2077C173.835 22.4334 174.332 22.5466 174.854 22.5466C175.408 22.5465 175.82 22.4135 176.092 22.1491C176.364 21.8847 176.499 21.5489 176.499 21.1413C176.499 20.8328 176.42 20.5519 176.263 20.2985C176.105 20.0451 175.818 19.8103 175.4 19.5954C174.981 19.3806 174.381 19.169 173.599 18.9597C172.393 18.6511 171.393 18.2484 170.6 17.7526C169.807 17.2568 169.217 16.6617 168.831 15.9675C168.446 15.2733 168.252 14.4634 168.252 13.5378C168.252 12.4911 168.511 11.5904 169.027 10.8356C169.543 10.0808 170.249 9.49921 171.146 9.09149C172.042 8.68387 173.05 8.48016 174.169 8.48016ZM229.959 8.48016C230.633 8.48016 231.182 8.54618 231.606 8.67841C232.029 8.81054 232.358 8.94276 232.591 9.07489C232.825 9.20712 233.002 9.27313 233.121 9.27313C233.252 9.27308 233.444 9.21022 233.699 9.08368C233.955 8.95698 234.213 8.8328 234.474 8.71161C234.735 8.5904 234.952 8.52997 235.126 8.52997C235.322 8.53004 235.479 8.59605 235.599 8.72821C235.718 8.86048 235.8 9.08663 235.843 9.40594L236.267 12.447C236.343 12.8877 236.353 13.2267 236.299 13.4636C236.245 13.7004 236.103 13.8516 235.875 13.9177C235.691 13.9616 235.496 13.9258 235.289 13.8102C235.083 13.6945 234.876 13.51 234.669 13.2565C233.876 12.0556 233.151 11.2074 232.493 10.7116C231.836 10.2159 231.138 9.96755 230.4 9.96747C229.867 9.96747 229.465 10.0837 229.194 10.3151C228.922 10.5464 228.786 10.8489 228.785 11.2233C228.785 11.4767 228.846 11.7139 228.965 11.9343C229.085 12.1547 229.305 12.3615 229.625 12.5544C229.946 12.7472 230.399 12.9374 230.986 13.1247C232.561 13.6095 233.784 14.1242 234.654 14.6696C235.523 15.2151 236.131 15.8413 236.479 16.5466C236.826 17.2516 237 18.0722 237 19.0085C237 20.5512 236.484 21.7692 235.451 22.6618C234.419 23.5542 232.936 24.0007 231.002 24.0007C230.351 24.0007 229.81 23.9401 229.381 23.819C228.952 23.6978 228.603 23.576 228.337 23.4548C228.071 23.3337 227.856 23.2731 227.694 23.2731C227.531 23.2732 227.316 23.3337 227.05 23.4548L226.251 23.819C225.985 23.9402 225.759 24.0007 225.574 24.0007C225.412 24.0006 225.26 23.9457 225.118 23.8356C224.977 23.7255 224.868 23.505 224.792 23.1745L224.287 19.8854C224.19 19.4667 224.173 19.1133 224.239 18.8268C224.304 18.5407 224.45 18.3535 224.678 18.2653C224.917 18.1552 225.153 18.1497 225.387 18.2487C225.621 18.3479 225.83 18.5246 226.015 18.778C226.634 19.7364 227.194 20.4908 227.694 21.0417C228.193 21.5927 228.68 21.9818 229.153 22.2077C229.625 22.4335 230.122 22.5466 230.644 22.5466C231.198 22.5466 231.61 22.4135 231.882 22.1491C232.154 21.8847 232.29 21.549 232.29 21.1413C232.29 20.8329 232.211 20.5519 232.054 20.2985C231.896 20.0451 231.608 19.8103 231.19 19.5954C230.771 19.3806 230.171 19.169 229.389 18.9597C228.183 18.6511 227.183 18.2485 226.39 17.7526C225.597 17.2568 225.007 16.6617 224.621 15.9675C224.236 15.2733 224.043 14.4633 224.043 13.5378C224.043 12.4911 224.301 11.5904 224.817 10.8356C225.333 10.0808 226.039 9.49921 226.936 9.09149C227.832 8.68378 228.84 8.48016 229.959 8.48016ZM41.8401 8.48016C43.1765 8.48018 44.3038 8.67822 45.2219 9.07489C46.14 9.47154 46.8409 10.0086 47.3245 10.6862C47.808 11.3639 48.05 12.1222 48.05 12.9597C48.05 13.841 47.7973 14.5326 47.2922 15.0339C46.787 15.5353 46.099 15.7858 45.2297 15.7858C44.3389 15.7858 43.6622 15.5296 43.2004 15.0173C42.7388 14.5049 42.5081 13.8023 42.5081 12.9099V11.8522C42.5081 11.3123 42.4107 10.9041 42.2151 10.6286C42.0195 10.3531 41.7416 10.2155 41.3831 10.2155C41.0247 10.2156 40.7011 10.3621 40.4133 10.654C40.1256 10.946 39.9028 11.3838 39.7454 11.9675C39.5878 12.5514 39.5091 13.2732 39.509 14.1325C39.509 15.3664 39.6911 16.4025 40.0549 17.2399C40.4189 18.0773 40.916 18.706 41.5461 19.1247C42.1762 19.5434 42.8936 19.7525 43.6975 19.7526C44.5016 19.7526 45.1757 19.6341 45.719 19.3972C46.2622 19.1602 46.6805 18.7609 46.9739 18.1989C47.1368 18.0447 47.2643 17.9452 47.3567 17.9011C47.449 17.857 47.5393 17.8356 47.6262 17.8356C47.7347 17.8467 47.8242 17.8993 47.8948 17.9929C47.9653 18.0865 47.9955 18.2322 47.9846 18.4304C47.8977 19.5102 47.5663 20.4633 46.9905 21.2897C46.4146 22.1162 45.6373 22.7661 44.6594 23.2399C43.6815 23.7138 42.5405 23.9509 41.2366 23.9509C39.8567 23.9508 38.6205 23.6589 37.5286 23.0749C36.4367 22.4909 35.5757 21.6451 34.9456 20.5378C34.3154 19.4304 34.0003 18.0834 34.0002 16.4968C34.0002 14.9651 34.3292 13.5959 34.9866 12.3893C35.6439 11.1828 36.5592 10.2297 37.7327 9.52997C38.9062 8.83024 40.2754 8.48016 41.8401 8.48016ZM96.718 8.48016C98.1304 8.48023 99.3471 8.75871 100.368 9.31512C101.39 9.87156 102.175 10.6258 102.724 11.5788C103.273 12.532 103.547 13.5934 103.547 14.7614C103.547 15.2681 103.41 15.6677 103.139 15.9597L103.074 16.0241C102.807 16.2729 102.437 16.3971 101.966 16.3972H94.5149L94.5305 16.4733C94.7282 17.3808 95.0665 18.1082 95.5442 18.654C96.3591 19.5849 97.4459 20.0505 98.804 20.0505C99.6731 20.0504 100.441 19.8514 101.11 19.4548C101.778 19.0581 102.226 18.5076 102.454 17.8024C102.585 17.6593 102.702 17.563 102.805 17.5134C102.908 17.4638 102.998 17.4391 103.074 17.4391C103.183 17.4393 103.275 17.483 103.351 17.571C103.427 17.6591 103.465 17.8079 103.465 18.0173C103.465 19.0971 103.172 20.086 102.585 20.9841C101.998 21.8821 101.178 22.6014 100.124 23.1413C99.0703 23.6812 97.8529 23.9509 96.4729 23.9509C94.9518 23.9508 93.6149 23.6343 92.4631 23.0007C91.3115 22.3671 90.4123 21.4799 89.7659 20.3395C89.1194 19.1991 88.7961 17.8791 88.7961 16.3806C88.7962 14.8049 89.1089 13.4244 89.7336 12.2399C90.3584 11.0555 91.2633 10.1325 92.4475 9.47137C93.6318 8.81034 95.0557 8.48016 96.718 8.48016ZM112.299 8.48016C113.712 8.48016 114.929 8.75865 115.95 9.31512C116.971 9.8715 117.756 10.626 118.305 11.5788C118.854 12.532 119.128 13.5934 119.128 14.7614C119.128 15.2681 118.993 15.6677 118.721 15.9597L118.656 16.0241C118.388 16.2728 118.018 16.3972 117.547 16.3972H110.097L110.113 16.4733C110.31 17.3808 110.648 18.1082 111.125 18.654C111.94 19.585 113.027 20.0504 114.385 20.0505C115.254 20.0505 116.023 19.8515 116.692 19.4548C117.36 19.0581 117.808 18.5076 118.036 17.8024C118.167 17.6592 118.284 17.563 118.387 17.5134C118.49 17.4638 118.58 17.4392 118.656 17.4391C118.764 17.4391 118.857 17.4828 118.933 17.571C119.009 17.6592 119.047 17.808 119.047 18.0173C119.047 19.0971 118.753 20.086 118.166 20.9841C117.58 21.8821 116.759 22.6014 115.705 23.1413C114.651 23.6811 113.435 23.9508 112.055 23.9509C110.534 23.9509 109.197 23.6343 108.045 23.0007C106.893 22.3671 105.994 21.48 105.348 20.3395C104.701 19.199 104.378 17.8792 104.378 16.3806C104.378 14.8049 104.69 13.4244 105.315 12.2399C105.939 11.0554 106.844 10.1325 108.029 9.47137C109.213 8.81022 110.637 8.48016 112.299 8.48016ZM159.793 8.48016C161.89 8.48016 163.431 8.87951 164.414 9.67841C165.398 10.4773 165.889 11.6039 165.889 13.0583V20.364C165.889 20.5733 165.935 20.7421 166.028 20.8688C166.12 20.9954 166.259 21.0583 166.444 21.0583C166.574 21.0582 166.696 21.02 166.81 20.9431C166.924 20.866 167.008 20.7281 167.063 20.53C167.095 20.4859 167.134 20.4524 167.177 20.4304C167.22 20.4084 167.269 20.3972 167.323 20.3972C167.443 20.3972 167.538 20.4522 167.609 20.5622C167.679 20.6724 167.714 20.811 167.714 20.9763C167.714 21.3618 167.57 21.7861 167.282 22.2487C166.995 22.7114 166.558 23.1109 165.971 23.447C165.384 23.783 164.634 23.9509 163.721 23.9509C162.624 23.9508 161.774 23.7168 161.171 23.2487L161.068 23.1647C160.734 22.8819 160.504 22.5619 160.379 22.2048L160.355 22.1306L160.332 22.1589C159.935 22.6496 159.418 23.0457 158.782 23.3474C157.935 23.7494 157.023 23.9508 156.045 23.9509C154.741 23.9509 153.695 23.604 152.907 22.9099C152.12 22.2157 151.726 21.3286 151.726 20.2487C151.726 18.8272 152.299 17.7198 153.446 16.9265C154.592 16.1332 156.333 15.736 158.669 15.736L158.845 15.738C159.19 15.7452 159.493 15.7743 159.755 15.8249L159.842 15.8434V11.0251C159.842 10.6396 159.753 10.3339 159.573 10.1081C159.394 9.8822 159.152 9.76923 158.848 9.76923C158.566 9.76927 158.329 9.85438 158.139 10.0251C157.949 10.1959 157.854 10.4363 157.854 10.7448V12.0007C157.854 12.8161 157.583 13.4805 157.039 13.9929C156.496 14.5052 155.751 14.7614 154.806 14.7614C154.035 14.7614 153.445 14.5768 153.037 14.2077C152.63 13.8386 152.426 13.3006 152.426 12.5954C152.426 11.9345 152.701 11.2874 153.249 10.654C153.798 10.0204 154.618 9.49919 155.71 9.09149C156.802 8.6838 158.163 8.48018 159.793 8.48016ZM188.267 4.89325C188.517 4.89325 188.713 4.97047 188.854 5.12469L188.899 5.17938C189.01 5.33392 189.066 5.55849 189.066 5.85223V8.81024H192.472C192.711 8.81024 192.896 8.86279 193.027 8.96747C193.157 9.07208 193.222 9.23464 193.222 9.45477C193.222 9.7633 193.086 10.0283 192.815 10.2487L192.754 10.2946C192.48 10.4846 192.066 10.5788 191.511 10.5788H189.066V18.1159C189.066 18.9423 189.205 19.5542 189.482 19.9509C189.759 20.3475 190.163 20.5465 190.696 20.5466C190.924 20.5466 191.136 20.4963 191.331 20.3972C191.527 20.298 191.703 20.1683 191.861 20.0085C192.018 19.8487 192.168 19.6697 192.309 19.4714C192.45 19.273 192.587 19.075 192.717 18.8766C192.826 18.8327 192.921 18.8517 193.002 18.9343C193.084 19.0169 193.119 19.1857 193.108 19.4391C193.032 20.3314 192.785 21.1162 192.366 21.7936C191.948 22.4712 191.38 23.0004 190.663 23.3806C189.946 23.7607 189.098 23.9509 188.12 23.9509C186.469 23.9508 185.228 23.5489 184.397 22.7448C183.566 21.9404 183.15 20.673 183.15 18.9431V11.4714C183.15 11.2403 183.128 11.0642 183.084 10.9431C183.041 10.8218 182.932 10.7223 182.758 10.6452L181.992 10.3972C181.808 10.309 181.688 10.2016 181.634 10.0749C181.58 9.94822 181.552 9.79142 181.552 9.60419C181.552 9.37278 181.634 9.18264 181.797 9.03387C181.96 8.88524 182.161 8.81025 182.4 8.81024H183.198C183.296 8.8102 183.399 8.77209 183.508 8.69501C183.617 8.61787 183.764 8.46352 183.948 8.23212L186.963 5.70282C187.18 5.43843 187.398 5.238 187.615 5.10028C187.833 4.96262 188.05 4.89333 188.267 4.89325ZM201.583 8.48016C202.996 8.48017 204.212 8.75873 205.234 9.31512C206.255 9.87153 207.04 10.6258 207.589 11.5788C208.138 12.532 208.412 13.5934 208.412 14.7614C208.412 15.2681 208.277 15.6677 208.005 15.9597L207.94 16.0241C207.672 16.2728 207.303 16.3972 206.831 16.3972H199.381L199.397 16.4733C199.594 17.3808 199.932 18.1082 200.409 18.654C201.224 19.585 202.311 20.0504 203.669 20.0505C204.538 20.0505 205.308 19.8515 205.976 19.4548C206.644 19.0581 207.092 18.5075 207.321 17.8024C207.451 17.6592 207.568 17.5629 207.671 17.5134C207.774 17.4638 207.864 17.4391 207.94 17.4391C208.048 17.4391 208.141 17.4828 208.217 17.571C208.293 17.6592 208.331 17.808 208.331 18.0173C208.331 19.0971 208.037 20.086 207.45 20.9841C206.864 21.8821 206.043 22.6014 204.99 23.1413C203.936 23.6811 202.719 23.9508 201.339 23.9509C199.818 23.9509 198.481 23.6343 197.329 23.0007C196.178 22.3671 195.279 21.48 194.632 20.3395C193.986 19.199 193.662 17.8792 193.662 16.3806C193.662 14.8049 193.974 13.4244 194.599 12.2399C195.224 11.0554 196.128 10.1325 197.313 9.47137C198.497 8.81022 199.921 8.48016 201.583 8.48016ZM57.2092 8.48016C58.7955 8.48016 60.1812 8.81034 61.3655 9.47137C62.5498 10.1325 63.4741 11.0475 64.137 12.2155C64.7997 13.3835 65.1311 14.7337 65.1311 16.2653C65.1311 17.7198 64.7859 19.023 64.0959 20.1745C63.406 21.326 62.4492 22.2377 61.2268 22.9099C60.0045 23.5819 58.5839 23.9177 56.9651 23.9177C55.3895 23.9177 54.0065 23.5899 52.8167 22.9343C51.6271 22.2786 50.7011 21.3724 50.0383 20.2155C49.3755 19.0585 49.0442 17.7196 49.0442 16.1989C49.0442 14.7444 49.3918 13.4356 50.0872 12.2731C50.7826 11.1107 51.7442 10.1877 52.9719 9.50458C54.1996 8.82147 55.6121 8.48021 57.2092 8.48016ZM142.875 8.48016C144.462 8.48016 145.847 8.81029 147.031 9.47137C148.216 10.1325 149.139 11.0475 149.802 12.2155C150.465 13.3836 150.796 14.7336 150.796 16.2653C150.796 17.7198 150.452 19.023 149.762 20.1745C149.072 21.326 148.115 22.2377 146.893 22.9099C145.671 23.5819 144.25 23.9176 142.631 23.9177C141.056 23.9177 139.672 23.5899 138.483 22.9343C137.293 22.2787 136.367 21.3724 135.704 20.2155C135.042 19.0585 134.71 17.7196 134.71 16.1989C134.71 14.7444 135.058 13.4356 135.753 12.2731C136.449 11.1108 137.41 10.1877 138.638 9.50458C139.866 8.8215 141.278 8.48018 142.875 8.48016ZM72.1389 0.000671387C73.3016 0.000671387 74.2664 0.187539 75.0325 0.562195C75.7983 0.936772 76.3709 1.43589 76.7512 2.05829C77.1315 2.68088 77.3225 3.36199 77.3225 4.10028C77.3224 4.9705 77.0965 5.6231 76.6458 6.05829C76.1949 6.49345 75.6165 6.71151 74.9104 6.71161C74.1281 6.71161 73.4969 6.45775 73.0188 5.95087C72.5409 5.44402 72.302 4.77154 72.302 3.93427V2.46356C72.302 2.07789 72.2256 1.79382 72.0735 1.612C71.9214 1.43046 71.6881 1.33957 71.3733 1.33954C70.9713 1.33954 70.6667 1.47714 70.4602 1.75262C70.2538 2.02811 70.1506 2.42516 70.1506 2.94305C70.1507 3.47189 70.2734 3.96762 70.5178 4.43036C70.7623 4.89313 71.0636 5.32604 71.4221 5.72821C71.7806 6.13034 72.1388 6.51635 72.4973 6.88544C72.8559 7.25457 73.1581 7.61814 73.4026 7.97626L73.4719 8.08368C73.6038 8.29812 73.6916 8.51184 73.7356 8.7243L73.7512 8.81024H76.1653C76.4149 8.81029 76.6077 8.86291 76.7434 8.96747C76.8791 9.07208 76.9474 9.23461 76.9475 9.45477C76.9475 9.78534 76.8062 10.056 76.5237 10.2653C76.2412 10.4747 75.7952 10.5788 75.1868 10.5788H74.0295V20.8766C74.0295 21.1852 74.0759 21.4223 74.1682 21.5876C74.2606 21.7528 74.41 21.8524 74.6165 21.8854L76.0178 22.1003C76.2677 22.1333 76.453 22.2128 76.5725 22.3395C76.692 22.4662 76.7512 22.6398 76.7512 22.86C76.7512 23.3669 76.4963 23.6208 75.9856 23.6208H66.9885C66.7714 23.6207 66.595 23.557 66.4592 23.4304C66.3234 23.3036 66.2551 23.1246 66.2551 22.8932C66.2551 22.6949 66.3014 22.535 66.3938 22.4138C66.4861 22.2926 66.63 22.193 66.8254 22.1159L67.5266 21.9011C67.7003 21.846 67.8361 21.7417 67.9338 21.5876C68.0316 21.4333 68.0803 21.2129 68.0803 20.9265V11.3727C68.0803 11.2185 68.043 11.0887 67.967 10.9841C67.891 10.8794 67.7495 10.7831 67.5432 10.695L66.5979 10.3806C66.3482 10.2594 66.1685 10.1305 66.0598 9.99286C65.9512 9.85512 65.8967 9.68632 65.8967 9.48798C65.8968 9.28976 65.9651 9.12733 66.1008 9.00067L66.1536 8.95575C66.2836 8.8588 66.4534 8.81031 66.6624 8.81024H68.093L68.0823 8.71356C68.0517 8.52059 67.9749 8.33541 67.8528 8.1579C67.6898 7.92098 67.5045 7.65366 67.2981 7.35614C67.0917 7.05864 66.9074 6.70291 66.7444 6.28973C66.5815 5.87663 66.5003 5.36723 66.5002 4.76141C66.5002 3.31789 66.9891 2.16354 67.967 1.29852C68.9449 0.433567 70.3353 0.000707821 72.1389 0.000671387ZM83.5159 0.000671387C84.6782 0.000698118 85.6425 0.187675 86.4084 0.562195C87.1744 0.936819 87.7479 1.43577 88.1282 2.05829C88.5085 2.68088 88.6985 3.36199 88.6985 4.10028C88.6984 4.97059 88.4726 5.6231 88.0217 6.05829C87.5708 6.49347 86.9926 6.71161 86.2864 6.71161C85.504 6.71161 84.8738 6.45775 84.3958 5.95087C83.9177 5.44399 83.679 4.77167 83.679 3.93427V2.46356C83.679 2.07789 83.6026 1.79382 83.4504 1.612C83.2983 1.43027 83.0643 1.33954 82.7493 1.33954C82.3475 1.33961 82.0436 1.47736 81.8372 1.75262C81.6307 2.02811 81.5276 2.42515 81.5276 2.94305C81.5276 3.47186 81.6494 3.96764 81.8938 4.43036C82.1383 4.89315 82.4395 5.32602 82.7981 5.72821C83.1567 6.13041 83.5157 6.51629 83.8743 6.88544C84.2327 7.25449 84.5341 7.61822 84.7786 7.97626L84.8489 8.08368C84.9807 8.29805 85.0686 8.51191 85.1125 8.7243L85.1272 8.81024H87.5413C87.7912 8.81024 87.9845 8.86279 88.1204 8.96747C88.256 9.07209 88.3234 9.2347 88.3235 9.45477C88.3235 9.78535 88.1822 10.056 87.8997 10.2653C87.6172 10.4745 87.1719 10.5788 86.5637 10.5788H85.4065V20.8766C85.4065 21.1852 85.4528 21.4223 85.5452 21.5876C85.6375 21.7527 85.7871 21.8524 85.9934 21.8854L87.3948 22.1003C87.6445 22.1333 87.829 22.2129 87.9485 22.3395C88.068 22.4662 88.1282 22.6397 88.1282 22.86C88.1282 23.3668 87.8729 23.6206 87.3625 23.6208H78.3655C78.1482 23.6208 77.971 23.5571 77.8352 23.4304C77.6995 23.3037 77.6321 23.1245 77.6321 22.8932C77.6321 22.6949 77.6784 22.535 77.7708 22.4138C77.8631 22.2927 78.007 22.193 78.2024 22.1159L78.9036 21.9011C79.0772 21.8459 79.2131 21.7417 79.3108 21.5876C79.4086 21.4333 79.4573 21.2129 79.4573 20.9265V11.3727C79.4573 11.2185 79.4191 11.0888 79.343 10.9841C79.2669 10.8794 79.1256 10.7831 78.9192 10.695L77.9739 10.3806C77.7241 10.2594 77.5444 10.1305 77.4358 9.99286C77.3271 9.85512 77.2737 9.68632 77.2737 9.48798C77.2738 9.2898 77.3411 9.12732 77.4768 9.00067L77.5305 8.95575C77.6606 8.85888 77.8303 8.81024 78.0393 8.81024H79.469L79.4583 8.71356C79.4276 8.52053 79.3509 8.33545 79.2288 8.1579C79.0658 7.92102 78.8815 7.65361 78.675 7.35614C78.4686 7.05862 78.2833 6.70296 78.1204 6.28973C77.9575 5.87666 77.8763 5.36715 77.8762 4.76141C77.8762 3.31801 78.3653 2.16351 79.343 1.29852C80.3209 0.433509 81.7122 0.000671387 83.5159 0.000671387ZM131.19 8.48016C132.124 8.48027 132.841 8.79455 133.341 9.42255C133.841 10.0507 134.09 11.004 134.09 12.2819C134.09 13.549 133.829 14.4799 133.308 15.0749C132.786 15.6698 132.113 15.9674 131.287 15.9675C130.483 15.9675 129.888 15.7639 129.502 15.3561C129.117 14.9485 128.913 14.37 128.891 13.6208L128.875 12.9597C128.864 12.7062 128.815 12.5072 128.728 12.364C128.641 12.221 128.499 12.1491 128.304 12.1491C128.109 12.1493 127.938 12.2513 127.791 12.4548C127.645 12.6586 127.533 12.9706 127.457 13.3893C127.381 13.8081 127.343 14.3428 127.343 14.9929V20.8102C127.343 21.1188 127.392 21.3648 127.49 21.5466C127.587 21.7281 127.739 21.8414 127.946 21.8854L129.168 22.1325C129.396 22.1656 129.56 22.2516 129.657 22.3893C129.755 22.527 129.804 22.6895 129.804 22.8766C129.804 23.097 129.736 23.276 129.6 23.4138C129.464 23.5515 129.266 23.6208 129.005 23.6208H120.856C120.617 23.6208 120.429 23.5547 120.293 23.4225C120.157 23.2903 120.09 23.1081 120.09 22.8766C120.09 22.7005 120.131 22.5548 120.212 22.4391C120.294 22.3234 120.405 22.2151 120.546 22.1159L120.921 21.9675C121.062 21.9014 121.16 21.797 121.214 21.654C121.268 21.5108 121.296 21.2735 121.296 20.9431V12.5466C121.296 12.2823 121.266 12.092 121.206 11.9763C121.147 11.8606 121.046 11.7689 120.905 11.7028L120.481 11.654C120.329 11.5659 120.217 11.4719 120.147 11.3727C120.076 11.2737 120.041 11.1469 120.041 10.9929C120.041 10.8166 120.096 10.6589 120.204 10.5212C120.313 10.3836 120.497 10.2648 120.758 10.1657L125.387 8.82684C125.659 8.71668 125.887 8.63947 126.072 8.5954C126.256 8.55134 126.414 8.52997 126.544 8.52997C126.729 8.52999 126.868 8.596 126.96 8.72821L126.99 8.77606C127.066 8.91429 127.118 9.13562 127.147 9.43915L127.271 12.0075L127.299 11.9118C127.354 11.733 127.416 11.5614 127.482 11.3972C127.878 10.4111 128.402 9.6782 129.054 9.19891C129.706 8.71957 130.418 8.48016 131.19 8.48016ZM220.473 8.48016C221.407 8.48016 222.125 8.79445 222.625 9.42255C223.125 10.0507 223.374 11.004 223.374 12.2819C223.374 13.549 223.114 14.4799 222.592 15.0749C222.071 15.6698 221.397 15.9674 220.572 15.9675C219.767 15.9675 219.172 15.7639 218.786 15.3561C218.401 14.9485 218.197 14.37 218.175 13.6208L218.159 12.9597C218.149 12.7062 218.099 12.5072 218.012 12.364C217.925 12.221 217.784 12.1491 217.588 12.1491C217.393 12.1492 217.222 12.2513 217.075 12.4548C216.929 12.6586 216.818 12.9706 216.741 13.3893C216.665 13.8081 216.627 14.3428 216.627 14.9929V20.8102C216.627 21.1188 216.676 21.3648 216.774 21.5466C216.871 21.7281 217.023 21.8414 217.23 21.8854L218.452 22.1325C218.681 22.1656 218.844 22.2516 218.942 22.3893C219.039 22.527 219.088 22.6895 219.088 22.8766C219.088 23.097 219.02 23.276 218.884 23.4138C218.748 23.5515 218.55 23.6208 218.289 23.6208H210.14C209.901 23.6208 209.713 23.5547 209.577 23.4225C209.442 23.2903 209.374 23.1081 209.374 22.8766C209.374 22.7005 209.415 22.5548 209.496 22.4391C209.578 22.3234 209.689 22.2151 209.83 22.1159L210.205 21.9675C210.346 21.9014 210.444 21.797 210.498 21.654C210.553 21.5108 210.58 21.2735 210.58 20.9431V12.5466C210.58 12.2823 210.55 12.092 210.49 11.9763C210.431 11.8606 210.33 11.7689 210.189 11.7028L209.765 11.654C209.613 11.5659 209.502 11.4719 209.431 11.3727C209.36 11.2737 209.326 11.1469 209.325 10.9929C209.325 10.8166 209.38 10.6589 209.489 10.5212C209.597 10.3836 209.782 10.2648 210.042 10.1657L214.671 8.82684C214.943 8.71669 215.171 8.63947 215.356 8.5954C215.54 8.55135 215.698 8.52997 215.828 8.52997C216.013 8.52999 216.151 8.59603 216.243 8.72821L216.274 8.77606C216.35 8.91429 216.402 9.13564 216.431 9.43915L216.555 12.0075L216.583 11.9118C216.638 11.733 216.7 11.5614 216.766 11.3972C217.162 10.4111 217.686 9.6782 218.338 9.19891C218.99 8.71967 219.702 8.48026 220.473 8.48016ZM56.0032 10.2155C55.6666 10.2927 55.4171 10.5627 55.2542 11.0251C55.0912 11.4879 55.0253 12.1714 55.0579 13.0749C55.0905 13.9785 55.2318 15.1305 55.4817 16.53C55.7424 17.9291 56.0171 19.0583 56.3049 19.9177C56.5929 20.7772 56.8975 21.389 57.218 21.7526C57.5384 22.1161 57.8667 22.2648 58.2034 22.1989C58.5401 22.1328 58.7928 21.8685 58.9612 21.4059C59.1296 20.9431 59.2003 20.2564 59.1731 19.3474C59.1459 18.4384 59.0021 17.2845 58.7415 15.8854C58.4807 14.4861 58.2038 13.3562 57.9104 12.4968C57.617 11.6373 57.31 11.0254 56.9895 10.6618C56.669 10.2982 56.34 10.1494 56.0032 10.2155ZM141.669 10.2155C141.332 10.2927 141.082 10.5625 140.919 11.0251C140.756 11.4879 140.691 12.1714 140.724 13.0749C140.756 13.9785 140.898 15.1305 141.148 16.53C141.408 17.9291 141.683 19.0583 141.971 19.9177C142.259 20.7769 142.563 21.389 142.883 21.7526C143.204 22.1162 143.533 22.2649 143.869 22.1989C144.206 22.1328 144.459 21.8685 144.627 21.4059C144.796 20.9431 144.866 20.2564 144.839 19.3474C144.812 18.4384 144.668 17.2845 144.407 15.8854C144.147 14.4861 143.87 13.3562 143.576 12.4968C143.283 11.6373 142.976 11.0254 142.656 10.6618C142.335 10.2982 142.006 10.1494 141.669 10.2155ZM159.109 16.8434C158.685 16.8435 158.345 17.0425 158.09 17.4391C157.835 17.8358 157.707 18.42 157.707 19.1911C157.707 19.9292 157.841 20.4776 158.107 20.8356C158.373 21.1935 158.723 21.3727 159.157 21.3727L159.251 21.3698C159.437 21.3569 159.616 21.3049 159.789 21.2145L159.842 21.1843V16.9431L159.761 16.9177C159.576 16.8681 159.359 16.8434 159.109 16.8434ZM95.9348 10.1989C95.6417 10.199 95.3759 10.3233 95.137 10.571C94.8979 10.8189 94.7022 11.2406 94.55 11.8356C94.398 12.4307 94.3215 13.2462 94.3215 14.2819C94.3215 14.5553 94.3295 14.8186 94.345 15.072L94.3469 15.1081H96.8801C97.293 15.1081 97.5002 14.8766 97.5002 14.4138C97.5002 12.9045 97.3344 11.8247 97.0032 11.1745C96.6718 10.5244 96.3151 10.1989 95.9348 10.1989ZM111.517 10.1989C111.223 10.1989 110.957 10.323 110.718 10.571C110.479 10.8189 110.283 11.2407 110.131 11.8356C109.979 12.4306 109.904 13.2463 109.904 14.2819C109.904 14.5553 109.911 14.8186 109.926 15.072L109.929 15.1081H112.462C112.875 15.1081 113.081 14.8765 113.081 14.4138C113.081 12.9043 112.916 11.8246 112.584 11.1745C112.253 10.5244 111.897 10.199 111.517 10.1989ZM200.801 10.1989C200.508 10.1989 200.241 10.323 200.002 10.571C199.763 10.8189 199.567 11.2406 199.415 11.8356C199.263 12.4306 199.188 13.2463 199.188 14.2819C199.188 14.5553 199.195 14.8186 199.21 15.072L199.213 15.1081H201.746C202.159 15.108 202.365 14.8765 202.365 14.4138C202.365 12.9043 202.2 11.8246 201.868 11.1745C201.537 10.5244 201.181 10.199 200.801 10.1989Z" fill="#333D4B"/>
</svg>
